# xmcd
#
# Track frame offsets:
#	150
#	15556
#	40561
#	57701
#	72370
#	86148
#	102016
#	114739
#	132626
#	152307
#	168449
#
# Disc length: 2462 seconds
#
# Revision: 1
# Processed by: cddbd v1.5.2PL0 Copyright (c) Steve Scherf et al.
# Submitted via: audiograbber 1.83.01
#
DISCID=8e099c0b
DTITLE=Toby Keith - Icon
DYEAR=2017
DGENRE=Countey
TTITLE0=How Do You Like Me Now
TTITLE1=I Love This Bar
TTITLE2=As Good As I Once Was
TTITLE3=Courtesy of the Red, White And Blue (Angry American)
TTITLE4=I Wanna Talk About Me
TTITLE5=Beer For For Horses (With Willie Nelson)
TTITLE6=A Little Less Talk, And A Lot More Action
TTITLE7=Whiskey Girl
TTITLE8=American Soldier
TTITLE9=Stays In Mexico
TTITLE10=HonkyTonk U
EXTD=
EXTT0=
EXTT1=
EXTT2=
EXTT3=
EXTT4=
EXTT5=
EXTT6=
EXTT7=
EXTT8=
EXTT9=
EXTT10=
PLAYORDER=
